<?xml version="1.0" encoding="utf-8" ?>
<svg xmlns="http://www.w3.org/2000/svg" xmlns:xlink="http://www.w3.org/1999/xlink" width="1388" height="1041">
	<path fill="#D2B589" transform="matrix(2.40555 0 0 2.40416 -6.10352e-05 0)" d="M317.222 223.225C318.444 223.182 319.714 222.656 320.709 223.701C320.778 223.774 320.841 223.852 320.906 223.928C320.628 224.577 320.267 224.791 319.603 225.074C318.83 225.404 317.914 225.507 317.083 225.57C317.209 224.79 317.208 224.014 317.222 223.225Z"/>
	<path fill="#0E1D41" transform="matrix(2.40555 0 0 2.40416 -6.10352e-05 0)" d="M241.18 238.586C242.083 238.553 243.053 238.442 243.95 238.551C243.606 240.438 243.453 242.355 242.999 244.223L242.713 244.25C241.836 242.609 241.584 240.4 241.18 238.586Z"/>
	<path fill="#D2B589" transform="matrix(2.40555 0 0 2.40416 -6.10352e-05 0)" d="M276.417 222.67C277.223 223.392 278.478 223.41 279.517 223.57C278.46 224.319 277.343 225.259 276.166 225.784C275.546 225.534 274.785 225.632 274.209 225.306C273.609 224.967 273.255 224.454 273.01 223.831L273.374 223.245C274.347 222.681 275.329 222.711 276.417 222.67Z"/>
	<path fill="#D2B589" transform="matrix(2.40555 0 0 2.40416 -6.10352e-05 0)" d="M258.125 156.66C263.677 155.024 270.041 155.372 275.792 155.237C276.13 155.739 276.253 156.127 276.886 156.285C277.789 156.509 278.865 156.296 279.801 156.361C278.49 156.577 277.115 156.792 275.782 156.679C273.545 156.696 263.382 157.639 261.498 158.178C260.602 158.434 259.739 158.791 259.092 159.486C257.195 161.525 257.93 166.327 258.031 168.945C256.95 168.111 256.091 167.238 255.203 166.202C255.363 165.088 255.166 163.897 255.2 162.768C255.285 159.947 256.095 158.551 258.125 156.66Z"/>
	<path fill="#0E1D41" transform="matrix(2.40555 0 0 2.40416 -6.10352e-05 0)" d="M331.822 292.835C333.195 294.377 332.468 300.742 334.29 303.555C335.739 305.793 340.885 306.131 343.321 306.613C340.311 307.694 336.511 308.179 333.916 310.052C332.948 312.923 332.936 316.323 331.774 318.99C330.152 315.847 330.011 312.192 328.726 308.908C326.155 308.078 323.149 307.765 320.485 307.256C323.37 306.387 326.202 305.269 329.033 304.237C330.915 300.215 330.57 295.906 331.822 292.835Z"/>
	<path fill="#D2B589" transform="matrix(2.40555 0 0 2.40416 -6.10352e-05 0)" d="M283.008 339.83C284.484 340.151 286.035 340.595 287.553 340.562C288.194 341.015 288.337 341.035 288.485 341.845C288.662 342.813 288.552 343.841 288.639 344.824C288.855 347.287 289.645 349.863 290.65 352.112C291.442 353.883 292.449 355.726 293.654 357.253C294.381 358.176 295.778 359.043 296.026 360.161C295.579 360.454 295.115 360.488 294.599 360.563C291.774 360.227 288.762 359.564 286.634 357.537C282.963 354.041 283.066 344.627 283.008 339.83Z"/>
	<path fill="#0E1D41" transform="matrix(2.40555 0 0 2.40416 -6.10352e-05 0)" d="M239.633 227.401C239.902 226.059 242.625 216.268 243.118 215.808C243.975 217.365 244.258 225.117 244.733 227.608C247.6 228.48 250.749 228.236 253.713 228.674C250.945 229.878 248.171 231.219 245.328 232.23C244.713 234.304 244.346 236.427 243.95 238.551C243.053 238.442 242.083 238.553 241.18 238.586C240.774 236.66 240.581 234.15 238.794 232.977C237.034 231.822 233.503 232.12 231.424 232.056C234.316 230.689 236.855 228.954 239.633 227.401Z"/>
	<path fill="#0E1D41" transform="matrix(2.40555 0 0 2.40416 -6.10352e-05 0)" d="M345.145 120.159C347.114 124.021 345.586 129.295 348.729 134.24C350.599 135.176 352.682 135.793 354.651 136.496C352.727 137.722 350.317 137.934 348.38 139.238C348.3 139.292 348.221 139.348 348.141 139.403C347.003 142.434 347.073 147.351 345.751 149.882L345.382 149.851L345.121 148.938C343.923 146.021 343.464 142.809 342.411 139.821C339.72 137.421 336.427 137.969 333.437 136.258C335.691 135.955 338.334 135.728 340.292 134.513C343.93 132.257 344.321 124.158 345.145 120.159Z"/>
	<path fill="#D2B589" transform="matrix(2.40555 0 0 2.40416 -6.10352e-05 0)" d="M311.05 339.796C310.533 344.794 310.895 354.665 306.809 358.147C303.437 361.021 298.679 360.417 294.599 360.563C295.115 360.488 295.579 360.454 296.026 360.161C295.778 359.043 294.381 358.176 293.654 357.253C292.449 355.726 291.442 353.883 290.65 352.112C289.645 349.863 288.855 347.287 288.639 344.824C288.552 343.841 288.662 342.813 288.485 341.845C288.337 341.035 288.194 341.015 287.553 340.562C293.91 341.61 304.617 341.094 311.05 339.796Z"/>
	<path fill="#D2B589" transform="matrix(2.40555 0 0 2.40416 -6.10352e-05 0)" d="M285.52 310.746C286.244 309.586 287.353 308.506 288.182 307.396C291.337 303.17 294.357 298.258 298.382 294.797C302.223 291.493 309.974 292.148 314.746 292.535C314.779 297.029 314.876 301.554 314.644 306.042C314.314 312.433 313.319 319.455 314.166 325.799C314.567 326.542 314.893 327.037 314.804 327.898C313.906 329.121 312.725 329.167 311.315 329.431C311.364 331.672 311.331 333.946 311.457 336.181L311.633 336.494C312.05 337.226 312.57 337.553 312.462 338.419L311.05 339.796C304.617 341.094 293.91 341.61 287.553 340.562C286.035 340.595 284.484 340.151 283.008 339.83C282.527 339.704 281.941 339.584 281.493 339.36C280.872 339.048 280.744 338.595 280.573 337.977C280.792 337.221 281.112 336.915 281.688 336.393C281.993 334.108 282.007 331.755 282.116 329.453C281.043 329.192 279.63 328.957 278.83 328.146C278.377 327.687 278.438 327.549 278.437 326.94C278.783 326.399 279.121 326.077 279.625 325.682C280 323.138 280.054 320.56 280.167 317.995C280.21 317.881 284.587 312.441 285.52 310.746Z"/>
	<path fill="#D2B589" transform="matrix(2.40555 0 0 2.40416 -6.10352e-05 0)" d="M285.52 310.746C286.282 315.37 287.586 322.734 287.381 327.219C287.222 327.428 287.108 327.633 286.878 327.765C284.581 327.214 281.728 326.762 279.625 325.682C280 323.138 280.054 320.56 280.167 317.995C280.21 317.881 284.587 312.441 285.52 310.746Z"/>
	<path fill="#0E1D41" transform="matrix(2.40555 0 0 2.40416 -6.10352e-05 0)" d="M279.625 325.682C281.728 326.762 284.581 327.214 286.878 327.765C287.847 328.193 289.429 328.217 290.507 328.329Q293.49 328.638 296.489 328.634Q299.488 328.629 302.47 328.31Q305.452 327.991 308.384 327.362Q311.316 326.732 314.166 325.799C314.567 326.542 314.893 327.037 314.804 327.898C313.906 329.121 312.725 329.167 311.315 329.431C303.268 331.22 296.06 331.557 287.886 330.623C285.967 330.196 284.057 329.768 282.116 329.453C281.043 329.192 279.63 328.957 278.83 328.146C278.377 327.687 278.438 327.549 278.437 326.94C278.783 326.399 279.121 326.077 279.625 325.682Z"/>
	<path fill="#D2B589" transform="matrix(2.40555 0 0 2.40416 -6.10352e-05 0)" d="M282.116 329.453C284.057 329.768 285.967 330.196 287.886 330.623C296.06 331.557 303.268 331.22 311.315 329.431C311.364 331.672 311.331 333.946 311.457 336.181L311.633 336.494C312.05 337.226 312.57 337.553 312.462 338.419L311.05 339.796C304.617 341.094 293.91 341.61 287.553 340.562C286.035 340.595 284.484 340.151 283.008 339.83C282.527 339.704 281.941 339.584 281.493 339.36C280.872 339.048 280.744 338.595 280.573 337.977C280.792 337.221 281.112 336.915 281.688 336.393C281.993 334.108 282.007 331.755 282.116 329.453Z"/>
	<path fill="#D2B589" transform="matrix(2.40555 0 0 2.40416 -6.10352e-05 0)" d="M282.116 329.453C284.057 329.768 285.967 330.196 287.886 330.623C287.938 333.132 288.209 335.671 288.201 338.171C286.086 337.751 283.583 337.455 281.688 336.393C281.993 334.108 282.007 331.755 282.116 329.453Z"/>
	<path fill="#0E1D41" transform="matrix(2.40555 0 0 2.40416 -6.10352e-05 0)" d="M311.457 336.181L311.633 336.494C312.05 337.226 312.57 337.553 312.462 338.419L311.05 339.796C304.617 341.094 293.91 341.61 287.553 340.562C286.035 340.595 284.484 340.151 283.008 339.83C282.527 339.704 281.941 339.584 281.493 339.36C280.872 339.048 280.744 338.595 280.573 337.977C280.792 337.221 281.112 336.915 281.688 336.393C283.583 337.455 286.086 337.751 288.201 338.171C294.894 339.242 304.887 339.378 311.216 336.834L311.457 336.181Z"/>
	<path fill="#0E1D41" transform="matrix(2.40555 0 0 2.40416 -6.10352e-05 0)" d="M238.47 381.226C239.025 374.779 241.146 367.948 242.582 361.62C243.74 356.518 244.195 351.278 245.371 346.193C247.27 337.978 252.55 326.962 257.871 320.513C265.233 311.589 275.196 306.053 283.872 298.637C286.347 296.521 288.961 294.227 291.223 291.877C292.816 290.222 294.222 288.272 296.005 286.821C296.833 286.147 297.641 285.639 298.714 285.477C303.822 284.706 311.141 286.896 316.219 287.918C317.805 288.238 319.714 288.819 321.326 288.631C321.393 288.623 321.458 288.611 321.525 288.601C320.953 290.01 320.395 290.621 318.983 291.217C317.641 291.783 316.146 292.135 314.746 292.535C309.974 292.148 302.223 291.493 298.382 294.797C294.357 298.258 291.337 303.17 288.182 307.396C287.353 308.506 286.244 309.586 285.52 310.746C284.587 312.441 280.21 317.881 280.167 317.995C279.218 317.941 278.596 318.59 277.904 319.206C275.899 320.993 272.763 323.621 271.704 326.074C270.601 328.627 270.892 332.886 270.508 335.683C269.891 340.179 269.093 344.643 268.521 349.148C268.079 352.631 267.894 356.167 267.343 359.632C266.771 363.234 265.936 366.816 265.219 370.392C264.504 373.957 263.973 377.562 262.801 381.018L238.47 381.226Z"/>
	<path fill="#D2B589" transform="matrix(2.40555 0 0 2.40416 -6.10352e-05 0)" d="M275.772 154.886C285.082 154.135 294.616 154.087 303.953 154.327C308.664 154.448 313.403 154.811 318.111 154.811L318.621 155.24C322.369 155.185 330.004 155.044 333.324 156.083C334.559 156.116 335.576 156.601 336.689 157.08C338.935 160.217 338.726 163.062 338.55 166.771C340.95 163.944 344.196 162.55 347.883 162.239C348.8 162.161 349.255 162.24 350 162.781C350.252 163.423 350.397 163.5 350.108 164.175C348.965 166.84 347.467 169.312 346.63 172.122C344.963 177.72 344.214 189.873 345.027 195.71L345.329 196.239C344.883 196.905 344.447 197.08 343.653 197.277C343.602 197.29 343.548 197.283 343.496 197.286C342.235 198.469 341.36 199.515 340.87 201.228C340.917 202.375 340.627 203.076 340.035 204.04Q339.692 205.899 339.326 207.754C336.117 207.021 333.185 205.325 329.883 204.709C326.693 204.115 323.325 204.094 320.09 203.792C312.293 203.065 304.501 202.294 296.66 202.314C289.579 202.332 282.58 203.018 275.538 203.622C271.237 203.991 266.783 204.12 262.554 205.003C260.208 205.492 258.089 206.719 255.825 207.452C255.166 207.666 255.167 207.685 254.538 207.372C254.354 206.137 254.096 204.956 253.78 203.748C253.221 203.623 252.949 203.389 252.508 203.044C252.167 202.284 252.307 201.81 252.485 201.016C252.081 199.601 251.326 198.522 250.494 197.332C250.408 197.329 250.32 197.339 250.236 197.323C249.519 197.188 249.16 196.896 248.729 196.349L248.882 195.789Q248.891 192.148 249.075 188.512C248.843 178.85 247.832 171.026 242.892 162.573C248.082 162.505 250.958 163.294 255.203 166.202C256.091 167.238 256.95 168.111 258.031 168.945C258.684 169.114 259.321 169.269 260 169.203C262.587 168.952 263.875 165.798 265.333 163.977C268.182 160.417 271.721 161.006 275.77 160.567L275.782 156.679C277.115 156.792 278.49 156.577 279.801 156.361C278.865 156.296 277.789 156.509 276.886 156.285C276.253 156.127 276.13 155.739 275.792 155.237L275.772 154.886ZM318.154 156.659C317.662 158.096 317.965 161.149 318.232 162.689C320.031 161.926 322.033 160.963 324.009 161.691C324.754 161.966 325.462 162.559 325.969 163.163C330.052 162.774 330.074 167.974 332.991 169.519C333.729 169.91 334.3 169.817 335.038 169.552C335.359 169.203 335.633 168.847 335.804 168.399C336.652 166.162 336.487 162.156 335.384 160.026C334.73 158.763 333.848 158.602 332.576 158.254C327.882 157.618 322.89 156.751 318.154 156.659Z"/>
	<path fill="#D2B589" transform="matrix(2.40555 0 0 2.40416 -6.10352e-05 0)" d="M318.621 155.24C322.369 155.185 330.004 155.044 333.324 156.083C331.106 156.247 328.777 155.919 326.612 156.159L327.535 156.315L327.691 156.698L326.651 156.979C328.73 157.658 330.632 156.761 332.576 158.254C327.882 157.618 322.89 156.751 318.154 156.659C318.616 156.15 318.552 155.91 318.621 155.24Z"/>
	<path fill="#0E1D41" transform="matrix(2.40555 0 0 2.40416 -6.10352e-05 0)" d="M248.882 195.789C268.556 188.56 298.708 186.689 319.384 189.699C328.225 190.986 336.475 193.296 345.027 195.71L345.329 196.239C344.883 196.905 344.447 197.08 343.653 197.277C343.602 197.29 343.548 197.283 343.496 197.286C343.308 197.189 343.123 197.101 342.927 197.019C340.566 196.041 337.124 196.09 334.546 195.503C308.026 189.464 288.29 189.378 261.835 195.072C258.257 195.842 253.839 195.981 250.494 197.332C250.408 197.329 250.32 197.339 250.236 197.323C249.519 197.188 249.16 196.896 248.729 196.349L248.882 195.789Z"/>
	<path fill="#D2B589" transform="matrix(2.40555 0 0 2.40416 -6.10352e-05 0)" d="M250.494 197.332C253.839 195.981 258.257 195.842 261.835 195.072C288.29 189.378 308.026 189.464 334.546 195.503C337.124 196.09 340.566 196.041 342.927 197.019C343.123 197.101 343.308 197.189 343.496 197.286C342.235 198.469 341.36 199.515 340.87 201.228C340.917 202.375 340.627 203.076 340.035 204.04Q339.692 205.899 339.326 207.754C336.117 207.021 333.185 205.325 329.883 204.709C326.693 204.115 323.325 204.094 320.09 203.792C312.293 203.065 304.501 202.294 296.66 202.314C289.579 202.332 282.58 203.018 275.538 203.622C271.237 203.991 266.783 204.12 262.554 205.003C260.208 205.492 258.089 206.719 255.825 207.452C255.166 207.666 255.167 207.685 254.538 207.372C254.354 206.137 254.096 204.956 253.78 203.748C253.221 203.623 252.949 203.389 252.508 203.044C252.167 202.284 252.307 201.81 252.485 201.016C252.081 199.601 251.326 198.522 250.494 197.332Z"/>
	<path fill="#0E1D41" transform="matrix(2.40555 0 0 2.40416 -6.10352e-05 0)" d="M252.485 201.016C254.841 201.116 266.519 197.625 270.533 197.071C290.1 194.369 322.052 194.708 340.87 201.228C340.917 202.375 340.627 203.076 340.035 204.04C339.424 203.479 338.775 203.26 337.999 203.018C334.705 201.989 331.21 201.347 327.836 200.631Q323.946 199.795 320.016 199.172Q316.086 198.548 312.129 198.137Q308.171 197.727 304.197 197.531Q300.223 197.335 296.244 197.354Q292.265 197.374 288.293 197.608Q284.321 197.843 280.367 198.292Q276.414 198.741 272.49 199.403Q268.567 200.066 264.685 200.939C261.513 201.637 256.509 202.322 253.78 203.748C253.221 203.623 252.949 203.389 252.508 203.044C252.167 202.284 252.307 201.81 252.485 201.016Z"/>
	<path fill="#D2B589" transform="matrix(2.40555 0 0 2.40416 -6.10352e-05 0)" d="M253.78 203.748C256.509 202.322 261.513 201.637 264.685 200.939Q268.567 200.066 272.49 199.403Q276.414 198.741 280.367 198.292Q284.321 197.843 288.293 197.608Q292.265 197.374 296.244 197.354Q300.223 197.335 304.197 197.531Q308.171 197.727 312.129 198.137Q316.086 198.548 320.016 199.172Q323.946 199.795 327.836 200.631C331.21 201.347 334.705 201.989 337.999 203.018C338.775 203.26 339.424 203.479 340.035 204.04Q339.692 205.899 339.326 207.754C336.117 207.021 333.185 205.325 329.883 204.709C326.693 204.115 323.325 204.094 320.09 203.792C312.293 203.065 304.501 202.294 296.66 202.314C289.579 202.332 282.58 203.018 275.538 203.622C271.237 203.991 266.783 204.12 262.554 205.003C260.208 205.492 258.089 206.719 255.825 207.452C255.166 207.666 255.167 207.685 254.538 207.372C254.354 206.137 254.096 204.956 253.78 203.748Z"/>
	<path fill="#D2B589" transform="matrix(2.40555 0 0 2.40416 -6.10352e-05 0)" d="M275.772 154.886C285.082 154.135 294.616 154.087 303.953 154.327C308.664 154.448 313.403 154.811 318.111 154.811L318.621 155.24C318.552 155.91 318.616 156.15 318.154 156.659C317.662 158.096 317.965 161.149 318.232 162.689C320.031 161.926 322.033 160.963 324.009 161.691C324.754 161.966 325.462 162.559 325.969 163.163C322.305 168.13 320.326 173.521 313.415 174.523C308.456 175.243 302.955 171.731 296.29 172.292C290.017 172.821 287.849 178.102 282.7 179.48C276.695 181.087 270.192 178.72 264.082 179.705C256.901 180.863 252.459 187.942 249.817 188.606C249.474 188.692 249.374 188.706 249.075 188.512C248.843 178.85 247.832 171.026 242.892 162.573C248.082 162.505 250.958 163.294 255.203 166.202C256.091 167.238 256.95 168.111 258.031 168.945C258.684 169.114 259.321 169.269 260 169.203C262.587 168.952 263.875 165.798 265.333 163.977C268.182 160.417 271.721 161.006 275.77 160.567L275.782 156.679C277.115 156.792 278.49 156.577 279.801 156.361C278.865 156.296 277.789 156.509 276.886 156.285C276.253 156.127 276.13 155.739 275.792 155.237L275.772 154.886Z"/>
	<path fill="#D2B589" transform="matrix(2.40555 0 0 2.40416 -6.10352e-05 0)" d="M275.772 154.886C285.082 154.135 294.616 154.087 303.953 154.327C308.664 154.448 313.403 154.811 318.111 154.811L318.621 155.24C318.552 155.91 318.616 156.15 318.154 156.659C317.662 158.096 317.965 161.149 318.232 162.689C316.913 165.223 313.961 167.478 311.273 168.373C310.25 168.624 308.688 168.553 307.654 168.39C306.198 167.9 305.052 167.411 303.86 166.421C301.611 164.553 298.735 158.727 295.19 160.634C291.853 162.429 291.241 168.782 284.95 168.45C284.036 168.492 283.2 168.429 282.295 168.301C279.765 167.087 277.909 165.538 275.901 163.619L275.77 160.567L275.782 156.679C277.115 156.792 278.49 156.577 279.801 156.361C278.865 156.296 277.789 156.509 276.886 156.285C276.253 156.127 276.13 155.739 275.792 155.237L275.772 154.886Z"/>
	<path fill="#0E1D41" transform="matrix(2.40555 0 0 2.40416 -6.10352e-05 0)" d="M310.891 156.267C313.316 156.306 315.734 156.495 318.154 156.659C317.662 158.096 317.965 161.149 318.232 162.689C316.913 165.223 313.961 167.478 311.273 168.373L311.044 168.189C310.255 166.46 310.83 158.595 310.891 156.267Z"/>
	<path fill="#0E1D41" transform="matrix(2.40555 0 0 2.40416 -6.10352e-05 0)" d="M279.801 156.361L283.137 156.175C283.148 159.976 282.89 164.019 283.233 167.789L282.295 168.301C279.765 167.087 277.909 165.538 275.901 163.619L275.77 160.567L275.782 156.679C277.115 156.792 278.49 156.577 279.801 156.361Z"/>
	<path fill="#0E1D41" transform="matrix(2.40555 0 0 2.40416 -6.10352e-05 0)" d="M284.876 156.155Q296.696 156.047 308.515 156.153C308.555 158.122 309.18 167.037 308.358 168.25L307.654 168.39C306.198 167.9 305.052 167.411 303.86 166.421C301.611 164.553 298.735 158.727 295.19 160.634C291.853 162.429 291.241 168.782 284.95 168.45L284.814 168.175Q284.88 162.165 284.876 156.155Z"/>
	<path fill="#D2B589" transform="matrix(2.40555 0 0 2.40416 -6.10352e-05 0)" d="M231.232 51.4083C244.087 56.7318 244.828 68.3681 252.947 77.7564C257.532 83.0589 262.846 86.0334 268.731 89.5682C268.801 84.1636 268.399 79.4499 266.953 74.2262C269.032 77.024 270.535 80.4052 272.781 83.0401C275.682 82.4048 280.227 85.3104 282.739 86.7661C281.184 79.9596 281.23 75.0528 284.443 68.7704C285.042 67.6003 286.009 65.5848 287.313 65.1606C287.425 66.1135 286.541 67.5213 286.25 68.473C287.382 68.599 287.898 68.6199 288.672 69.5494C289.95 71.0839 290.85 72.9414 291.993 74.577C293.505 76.7401 295.665 78.5964 297.72 80.2403C311.963 91.6303 335.002 96.3788 332.17 119.43C331.149 127.738 326.648 134.302 322.492 141.306C321.361 143.212 319.81 145.395 319.391 147.59C319.385 148.577 319.214 148.702 318.627 149.518C317.7 151.066 318.009 153.083 318.111 154.811C313.403 154.811 308.664 154.448 303.953 154.327C294.616 154.087 285.082 154.135 275.772 154.886C276.068 152.863 276.037 150.968 275.627 148.964L275.155 148.337C273.9 147.806 272.465 147.627 271.134 147.339C266.956 146.433 263.624 145.089 260.354 142.276C257.407 139.741 254.741 136.654 253.145 133.081C250.47 127.094 250.096 116.191 249.559 109.464C246.263 107.071 243.762 103.53 241.23 100.37C238.282 96.6935 235.521 92.8601 234.027 88.3349C232.53 83.8015 232.965 79.3999 233.288 74.7387C233.851 66.6189 234.121 59.2044 231.232 51.4083Z"/>
	<path fill="#D2B589" transform="matrix(2.40555 0 0 2.40416 -6.10352e-05 0)" d="M276.091 147.177C286.16 145.951 295.819 144.931 305.98 145.743C309.765 146.046 316.207 147.637 319.391 147.59C319.385 148.577 319.214 148.702 318.627 149.518C310.226 147.497 296.81 147.661 288.135 148.172C283.992 148.416 279.772 149.048 275.627 148.964L275.155 148.337L276.091 147.177Z"/>
	<path fill="#0E1D41" transform="matrix(2.40555 0 0 2.40416 -6.10352e-05 0)" d="M301.023 94.1008C301.171 94.1468 301.345 94.1942 301.49 94.258C306.347 96.3881 315.156 105.539 316.965 110.47C319.61 117.678 318.059 128.142 314.916 135.046C314.596 135.529 314.217 136.206 313.731 136.534C313.235 136.867 313.058 136.792 312.513 136.694C311.529 135.572 311.524 133.9 311.722 132.487C313.055 122.939 313.029 116.441 309.401 107.213C308.716 105.472 308.051 103.223 306.878 101.753C305.31 99.7894 301.53 96.5284 301.023 94.1008Z"/>
	<path fill="#0E1D41" transform="matrix(2.40555 0 0 2.40416 -6.10352e-05 0)" d="M282.739 86.7661C281.184 79.9596 281.23 75.0528 284.443 68.7704C285.042 67.6003 286.009 65.5848 287.313 65.1606C287.425 66.1135 286.541 67.5213 286.25 68.473C284.433 74.2402 285.346 79.3822 288.096 84.6839C293.094 94.3169 298.052 100.173 294.494 111.694C293.677 114.34 292.446 116.98 290.645 119.106C290.976 107.849 289.668 104.179 285.438 93.8908C284.472 91.5414 283.728 89.1044 282.739 86.7661Z"/>
	<path fill="#0E1D41" transform="matrix(2.40555 0 0 2.40416 -6.10352e-05 0)" d="M275.627 148.964C279.772 149.048 283.992 148.416 288.135 148.172C296.81 147.661 310.226 147.497 318.627 149.518C317.7 151.066 318.009 153.083 318.111 154.811C313.403 154.811 308.664 154.448 303.953 154.327C294.616 154.087 285.082 154.135 275.772 154.886C276.068 152.863 276.037 150.968 275.627 148.964Z"/>
	<path fill="#0E1D41" transform="matrix(2.40555 0 0 2.40416 -6.10352e-05 0)" d="M266.953 74.2262C269.032 77.024 270.535 80.4052 272.781 83.0401C274.045 87.7586 273.782 92.2881 273.769 97.1123C273.738 109.519 279.864 115.216 286.243 124.785C288.39 128.007 292.54 133.316 290.455 137.357C290.177 137.896 289.874 138.116 289.34 138.374C288.145 138.381 286.926 137.317 286.099 136.511C280.78 131.322 272.259 121.592 269.994 114.643C268.947 111.43 268.755 107.931 268.745 104.569C268.732 100.344 268.273 93.43 268.731 89.5682C268.801 84.1636 268.399 79.4499 266.953 74.2262Z"/>
	<path fill="#0E1D41" transform="matrix(2.40555 0 0 2.40416 -6.10352e-05 0)" d="M242.982 75.6938C245.636 79.217 249.341 82.5795 251.347 86.4637C254.629 92.8167 255.865 99.8182 256.346 106.88C257.001 116.5 256.429 124.796 262.341 133.242C266.052 138.545 271.256 142.943 276.091 147.177L275.155 148.337C273.9 147.806 272.465 147.627 271.134 147.339C266.956 146.433 263.624 145.089 260.354 142.276C257.407 139.741 254.741 136.654 253.145 133.081C250.47 127.094 250.096 116.191 249.559 109.464C250.256 99.1822 248.369 92.5983 245.282 82.9725C244.504 80.5491 243.972 78.0432 242.982 75.6938Z"/>
	<path fill="#D2B589" transform="matrix(2.40555 0 0 2.40416 -6.10352e-05 0)" d="M254.538 207.372C255.167 207.685 255.166 207.666 255.825 207.452C258.089 206.719 260.208 205.492 262.554 205.003C266.783 204.12 271.237 203.991 275.538 203.622C282.58 203.018 289.579 202.332 296.66 202.314C304.501 202.294 312.293 203.065 320.09 203.792C323.325 204.094 326.693 204.115 329.883 204.709C333.185 205.325 336.117 207.021 339.326 207.754C339.231 208.907 339.121 209.511 338.213 210.268C333.38 214.299 324.635 211.08 319.011 219.569C318.282 220.669 317.443 221.906 317.222 223.225C317.208 224.014 317.209 224.79 317.083 225.57L317.005 225.811C316.853 226.9 316.69 227.978 316.661 229.079C316.639 233.016 316.835 237.001 316.646 240.928C319.14 240.986 321.649 240.851 323.534 242.808C324.703 244.023 325.177 245.735 325.064 247.392C324.954 249.006 324.062 251.054 322.793 252.074C322.398 252.392 321.973 252.631 321.522 252.861C319.703 254.457 317.648 256.01 316.331 258.065L317.074 260.098C319.333 260.687 322.156 260.579 323.558 262.778C324.749 264.646 324.603 267.419 324.064 269.489C323.612 271.223 322.83 272.117 321.535 273.274C319.818 274.999 317.619 275.502 315.83 276.967L315.229 277.168C315.772 279.078 320.605 282.166 322.039 284.766C321.906 286.05 321.799 287.338 321.525 288.601C321.458 288.611 321.393 288.623 321.326 288.631C319.714 288.819 317.805 288.238 316.219 287.918C311.141 286.896 303.822 284.706 298.714 285.477C297.641 285.639 296.833 286.147 296.005 286.821C294.222 288.272 292.816 290.222 291.223 291.877C288.961 294.227 286.347 296.521 283.872 298.637C275.196 306.053 265.233 311.589 257.871 320.513C252.55 326.962 247.27 337.978 245.371 346.193C244.195 351.278 243.74 356.518 242.582 361.62C241.146 367.948 239.025 374.779 238.47 381.226C226.988 380.514 215.331 381.862 203.837 380.942C203.976 378.997 204.449 377.277 205.046 375.428C205.028 375.021 205.024 374.616 205.052 374.21C205.408 369.039 208.622 362.389 210.406 357.446Q219.332 332.37 230.018 307.992C231.389 304.822 232.993 301.753 234.417 298.606C236.783 293.38 239.025 288.017 241.299 282.743C245.446 273.127 248.892 263.205 253.375 253.728C255.415 249.416 258.213 245.095 260.775 241.076C263.247 237.198 267.806 232.667 271.31 229.635C272.874 228.282 274.601 227.148 276.166 225.784C277.343 225.259 278.46 224.319 279.517 223.57C278.478 223.41 277.223 223.392 276.417 222.67C269.753 208.756 259.059 214.658 255.052 210.025C254.356 209.22 254.478 208.376 254.538 207.372Z"/>
	<path fill="#D2B589" transform="matrix(2.40555 0 0 2.40416 -6.10352e-05 0)" d="M276.426 263.287L276.923 263.84C276.947 264.972 276.292 266.151 275.87 267.189C276.1 268.181 276.612 269.318 276.663 270.32C276.702 271.067 276.297 271.313 275.813 271.781C274.99 271.181 274.498 270.752 274.342 269.709C274.003 267.432 275.174 265.105 276.426 263.287Z"/>
	<path fill="#D2B589" transform="matrix(2.40555 0 0 2.40416 -6.10352e-05 0)" d="M269.656 252.102C270.356 252.167 270.801 252.189 271.378 252.644C271.444 253.562 270.267 254.616 269.837 255.516C268.742 257.808 269.332 259.131 270.12 261.385C269.964 261.488 269.713 261.664 269.543 261.726C269.294 261.817 268.946 261.897 268.726 261.715C267.97 261.091 267.694 259.304 267.651 258.362C267.538 255.868 267.933 253.969 269.656 252.102Z"/>
	<path fill="#D2B589" transform="matrix(2.40555 0 0 2.40416 -6.10352e-05 0)" d="M282.15 275.959C282.58 275.995 282.856 276.095 283.245 276.28C283.341 277.853 281.77 279.049 281.876 280.597C281.948 281.655 283.04 282.423 283.754 283.118C283.851 284.047 283.675 284.078 283.138 284.801C281.986 284.575 281.024 284.262 280.315 283.26Q280.18 283.071 280.065 282.87Q279.949 282.669 279.855 282.457Q279.76 282.246 279.687 282.025Q279.614 281.805 279.563 281.579Q279.512 281.353 279.484 281.123Q279.456 280.892 279.451 280.66Q279.446 280.429 279.464 280.197Q279.483 279.966 279.524 279.738C279.844 277.904 280.659 276.958 282.15 275.959Z"/>
	<path fill="#D2B589" transform="matrix(2.40555 0 0 2.40416 -6.10352e-05 0)" d="M298.565 276.048C301.254 276.215 314.233 276.321 315.229 277.168L314.854 277.861C309.705 278.039 303.947 278.265 298.858 277.546C297.982 277.422 297.053 277.263 296.5 276.531C297.154 276.418 297.778 276.266 298.417 276.088L298.565 276.048Z"/>
	<path fill="#D2B589" transform="matrix(2.40555 0 0 2.40416 -6.10352e-05 0)" d="M316.331 258.065L317.074 260.098C312.03 259.993 306.787 260.356 301.803 261.161C298.562 261.684 294.699 262.975 291.481 262.861L291.161 262.517L291.23 261.734C291.275 261.713 291.321 261.693 291.366 261.671C293.265 260.707 295.258 260.271 297.313 259.767C300.492 259.875 303.922 259.129 307.085 258.768C310.154 258.417 313.251 258.29 316.331 258.065Z"/>
	<path fill="#D2B589" transform="matrix(2.40555 0 0 2.40416 -6.10352e-05 0)" d="M284.741 245.932C291.645 244.226 309.86 238.235 316.16 240.292L316.238 240.612C314.503 241.598 311.213 241.333 309.154 241.666C304.206 242.465 287.672 248.063 284.029 247.262C283.681 247.185 283.679 247.162 283.415 247.01C283.881 246.683 284.306 246.3 284.741 245.932Z"/>
	<path fill="#0E1D41" transform="matrix(2.40555 0 0 2.40416 -6.10352e-05 0)" d="M298.417 276.088C297.63 276.083 295.553 276.279 295.009 275.828C295.204 274.475 296.194 273.28 297.192 272.39C301.545 268.506 307.675 268.129 313.233 268.513C315.158 268.646 318.111 269.028 319.502 270.522C320.226 271.3 320.679 272.309 321.397 273.121L321.535 273.274C319.818 274.999 317.619 275.502 315.83 276.967L315.229 277.168C314.233 276.321 301.254 276.215 298.565 276.048L298.417 276.088Z"/>
	<path fill="#D2B589" transform="matrix(2.40555 0 0 2.40416 -6.10352e-05 0)" d="M298.565 276.048C304.747 273.267 308.284 272.085 315.19 273.094Q315.536 275.026 315.83 276.967L315.229 277.168C314.233 276.321 301.254 276.215 298.565 276.048Z"/>
	<path fill="#0E1D41" transform="matrix(2.40555 0 0 2.40416 -6.10352e-05 0)" d="M291.23 261.734L290.979 261.615C290.987 261.531 290.984 261.445 291.005 261.363C291.462 259.529 295.309 256.685 296.843 255.643C299.734 253.681 302.64 252.574 305.901 251.414C311.352 249.473 313.998 248.372 319.946 249.545C320.381 250.694 320.96 251.771 321.522 252.861C319.703 254.457 317.648 256.01 316.331 258.065C313.251 258.29 310.154 258.417 307.085 258.768C303.922 259.129 300.492 259.875 297.313 259.767C295.258 260.271 293.265 260.707 291.366 261.671C291.321 261.693 291.275 261.713 291.23 261.734Z"/>
	<path fill="#D2B589" transform="matrix(2.40555 0 0 2.40416 -6.10352e-05 0)" d="M297.313 259.767C302.711 256.369 309.925 254.375 316.25 253.603C316.219 255.101 316.211 256.571 316.331 258.065C313.251 258.29 310.154 258.417 307.085 258.768C303.922 259.129 300.492 259.875 297.313 259.767Z"/>
	<path fill="#D2B589" transform="matrix(2.40555 0 0 2.40416 -6.10352e-05 0)" d="M279.517 223.57C284.33 220.199 289.766 217.321 295.093 214.841C298.988 213.029 309.216 209.892 313.356 211.394C313.249 211.474 313.144 211.557 313.035 211.634C311.337 212.836 306.767 213.725 304.638 214.483C294.558 218.071 285.603 222.576 277.573 229.757C267.756 238.535 259.233 251.093 253.638 262.95C252.246 265.899 251.13 269.005 249.845 272.006C248.612 274.885 247.209 277.714 246.098 280.641C244.88 283.85 244.032 287.191 242.861 290.417C241.271 294.799 239.36 299.065 237.795 303.455C236.696 306.54 235.87 309.723 234.696 312.78C233.108 316.915 231.13 320.904 229.407 324.985C228.361 327.463 227.568 330.039 226.503 332.51Q221.001 345.348 214.473 357.696C211.481 363.468 209.529 370.598 205.046 375.428C205.028 375.021 205.024 374.616 205.052 374.21C205.408 369.039 208.622 362.389 210.406 357.446Q219.332 332.37 230.018 307.992C231.389 304.822 232.993 301.753 234.417 298.606C236.783 293.38 239.025 288.017 241.299 282.743C245.446 273.127 248.892 263.205 253.375 253.728C255.415 249.416 258.213 245.095 260.775 241.076C263.247 237.198 267.806 232.667 271.31 229.635C272.874 228.282 274.601 227.148 276.166 225.784C277.343 225.259 278.46 224.319 279.517 223.57Z"/>
	<path fill="#0E1D41" transform="matrix(2.40555 0 0 2.40416 -6.10352e-05 0)" d="M254.538 207.372C255.167 207.685 255.166 207.666 255.825 207.452C258.089 206.719 260.208 205.492 262.554 205.003C266.783 204.12 271.237 203.991 275.538 203.622C282.58 203.018 289.579 202.332 296.66 202.314C304.501 202.294 312.293 203.065 320.09 203.792C323.325 204.094 326.693 204.115 329.883 204.709C333.185 205.325 336.117 207.021 339.326 207.754C339.231 208.907 339.121 209.511 338.213 210.268C333.38 214.299 324.635 211.08 319.011 219.569C318.282 220.669 317.443 221.906 317.222 223.225C317.208 224.014 317.209 224.79 317.083 225.57L317.005 225.811C316.853 226.9 316.69 227.978 316.661 229.079C312.998 228.675 309.101 229.501 305.424 229.65C302.303 229.777 298.904 229.376 295.827 229.873C294.835 230.034 294.104 230.385 293.32 231.002C289.429 234.065 285.505 240.993 284.741 245.932C284.306 246.3 283.881 246.683 283.415 247.01C282.13 246.952 281.109 246.915 280.046 246.132C279.749 245.671 279.625 245.353 279.614 244.796C279.554 241.951 281.076 239.109 282.632 236.832C286.934 230.535 293.983 225.644 300.733 222.201C302.503 221.299 304.427 220.721 306.239 219.911C309.548 218.431 312.819 215.686 315.294 213.046C314.676 212.47 314.002 211.94 313.356 211.394C309.216 209.892 298.988 213.029 295.093 214.841C289.766 217.321 284.33 220.199 279.517 223.57C278.478 223.41 277.223 223.392 276.417 222.67C269.753 208.756 259.059 214.658 255.052 210.025C254.356 209.22 254.478 208.376 254.538 207.372Z"/>
	<path fill="#D2B589" transform="matrix(2.40555 0 0 2.40416 -6.10352e-05 0)" d="M299.366 227.056C305.495 223.604 310.453 223.836 317.222 223.225C317.208 224.014 317.209 224.79 317.083 225.57L317.005 225.811C314.851 225.629 312.182 226.209 309.985 226.417Q304.689 226.958 299.366 227.056Z"/>
</svg>
